<?xml version="1.0" encoding="UTF-8"?>
<svg width="109px" height="62px" viewBox="0 0 109 62" version="1.1" xmlns="http://www.w3.org/2000/svg" xmlns:xlink="http://www.w3.org/1999/xlink">
    <!-- Generator: Sketch 47.1 (45422) - http://www.bohemiancoding.com/sketch -->
    <title>i_type</title>
    <desc>Created with Sketch.</desc>
    <defs></defs>
    <g id="Mobile" stroke="none" stroke-width="1" fill="none" fill-rule="evenodd">
        <g id="Above-the-Fold" transform="translate(-133.000000, -93.000000)">
            <g id="i_type" transform="translate(133.000000, 93.000000)">
                <path d="M54.6992,15.6873 C49.2622,15.6873 44.8402,20.8183 44.8402,27.1263 C44.8402,33.4353 49.2622,38.5683 54.6992,38.5683 C60.1382,38.5683 64.5642,33.4353 64.5642,27.1263 C64.5642,20.8183 60.1382,15.6873 54.6992,15.6873 M54.6992,40.0683 C48.4352,40.0683 43.3402,34.2623 43.3402,27.1263 C43.3402,19.9913 48.4352,14.1873 54.6992,14.1873 C60.9662,14.1873 66.0642,19.9913 66.0642,27.1263 C66.0642,34.2623 60.9662,40.0683 54.6992,40.0683" id="Fill-1" fill="#1E1F1D"></path>
                <path d="M43.2744,61.6556 C42.8604,61.6556 42.5244,61.3196 42.5244,60.9056 L42.5244,55.6326 C42.5244,55.2186 42.8604,54.8826 43.2744,54.8826 C43.6884,54.8826 44.0244,55.2186 44.0244,55.6326 L44.0244,60.9056 C44.0244,61.3196 43.6884,61.6556 43.2744,61.6556" id="Fill-3" fill="#1E1F1D"></path>
                <path d="M36.3809,61.6556 C35.9669,61.6556 35.6309,61.3196 35.6309,60.9056 L35.6309,49.1396 C35.6309,44.1846 40.3279,42.8756 42.8129,42.8756 L48.1089,42.8756 C48.0889,42.8726 49.3529,42.7106 49.3629,41.9226 L49.3629,41.6516 C49.3629,41.2376 49.6989,40.9016 50.1129,40.9016 C50.5269,40.9016 50.8629,41.2376 50.8629,41.6516 L50.8629,41.9326 C50.8399,43.6516 49.1019,44.2796 48.1869,44.3716 L42.8129,44.3756 C42.5819,44.3766 37.1309,44.4506 37.1309,49.1396 L37.1309,60.9056 C37.1309,61.3196 36.7949,61.6556 36.3809,61.6556" id="Fill-5" fill="#1E1F1D"></path>
                <path d="M65.3233,61.8343 C64.9093,61.8343 64.5733,61.4983 64.5733,61.0843 L64.5733,55.7453 C64.5733,55.3313 64.9093,54.9953 65.3233,54.9953 C65.7373,54.9953 66.0733,55.3313 66.0733,55.7453 L66.0733,61.0843 C66.0733,61.4983 65.7373,61.8343 65.3233,61.8343" id="Fill-7" fill="#1E1F1D"></path>
                <path d="M72.2168,61.7454 C71.8028,61.7454 71.4668,61.4094 71.4668,60.9954 L71.4668,49.1394 C71.4668,44.4504 66.0158,44.3764 65.7838,44.3754 L60.4878,44.3754 C60.4148,44.3794 59.5348,44.3914 58.8628,43.7454 C58.5478,43.4444 58.1708,42.8854 58.1658,41.9394 L58.1658,41.7504 C58.1658,41.3364 58.5018,41.0004 58.9158,41.0004 C59.3298,41.0004 59.6658,41.3364 59.6658,41.7504 L59.6658,41.9344 C59.6678,42.2694 59.7468,42.5154 59.9008,42.6634 C60.1148,42.8694 60.4498,42.8764 60.4598,42.8764 L65.7848,42.8754 C68.2698,42.8754 72.9668,44.1844 72.9668,49.1394 L72.9668,60.9954 C72.9668,61.4094 72.6308,61.7454 72.2168,61.7454" id="Fill-9" fill="#1E1F1D"></path>
                <g id="Group" fill="#82E325">
                    <path d="M89.544,54.2596 C88.867,54.2596 88.405,54.4046 88.098,54.5736 C86.909,55.2246 86.912,56.7626 86.913,56.8286 C86.904,56.9686 86.781,58.5076 87.914,59.2486 C88.823,59.8436 91.214,60.3266 97.165,57.2726 C93.314,54.8946 90.959,54.2596 89.544,54.2596 M89.728,61.1906 C88.672,61.1906 87.792,60.9626 87.093,60.5036 C85.247,59.2956 85.394,57.0256 85.416,56.7706 C85.41,56.5896 85.441,54.3186 87.376,53.2586 C89.683,51.9936 93.575,53.1296 98.951,56.6296 C99.1,56.6896 99.227,56.7966 99.312,56.9376 C99.405,57.0926 99.439,57.2746 99.408,57.4486 C99.407,57.4576 99.405,57.4666 99.404,57.4746 C99.354,57.7436 99.162,57.9596 98.911,58.0456 C95.064,60.1396 91.991,61.1906 89.728,61.1906" id="Fill-11"></path>
                    <path d="M85.7412,43.8255 C81.6522,49.1265 81.6932,51.5645 82.1142,52.5665 C82.6372,53.8165 84.1692,53.9725 84.2332,53.9785 C84.3732,54.0015 85.8892,54.2845 86.7452,53.2325 C87.4312,52.3895 88.1612,50.0625 85.7412,43.8255 M84.8342,55.5315 C84.4112,55.5315 84.1042,55.4775 84.0202,55.4615 C83.8402,55.4485 81.5852,55.1815 80.7302,53.1475 C79.7142,50.7245 81.2462,46.9695 85.2832,41.9865 C85.3872,41.7885 85.5772,41.6425 85.8052,41.5995 C86.0492,41.5515 86.2852,41.6265 86.4572,41.7855 C86.5652,41.8815 86.6452,42.0075 86.6832,42.1505 C89.1592,48.0915 89.5712,52.1385 87.9082,54.1805 C86.9792,55.3195 85.6762,55.5315 84.8342,55.5315" id="Fill-13"></path>
                    <path d="M103.5235,39.5579 C99.1445,39.5579 97.6465,40.6299 97.1335,41.3809 C96.3675,42.5049 97.0665,43.8629 97.0965,43.9199 C97.1555,44.0549 97.7335,45.4779 99.0825,45.6299 C100.1695,45.7509 102.5155,45.1039 106.4485,39.6919 C105.3525,39.5999 104.3825,39.5579 103.5235,39.5579 M99.3285,47.1439 C99.1885,47.1439 99.0505,47.1369 98.9145,47.1209 C96.7185,46.8729 95.8305,44.7849 95.7365,44.5469 C95.3385,43.8069 94.8785,42.0299 95.8915,40.5399 C97.3715,38.3649 101.3575,37.6159 107.7405,38.3109 C108.0025,38.2779 108.2665,38.3969 108.4265,38.6229 C108.4685,38.6819 108.5015,38.7459 108.5235,38.8109 C108.5505,38.8839 108.5675,38.9619 108.5705,39.0429 C108.5795,39.2619 108.4925,39.4689 108.3405,39.6149 C104.8865,44.6149 101.8585,47.1439 99.3285,47.1439" id="Fill-15"></path>
                    <path d="M92.9688,41.8611 C93.0818,41.8631 94.6458,41.9581 95.3648,40.8001 C95.9378,39.8771 96.3618,37.4751 93.1408,31.6001 C89.7778,37.3961 90.1418,39.8071 90.6928,40.7441 C91.3778,41.9131 92.9558,41.8561 92.9688,41.8611 M93.1518,43.3641 C93.0368,43.3641 92.9648,43.3591 92.9488,43.3581 C92.9428,43.3621 90.5608,43.4641 89.4058,41.5151 C88.0638,39.2481 89.0878,35.3181 92.4488,29.8321 C92.5278,29.6241 92.6968,29.4571 92.9158,29.3841 C92.9958,29.3571 93.0688,29.3431 93.1588,29.3461 C93.2548,29.3551 93.3308,29.3591 93.4148,29.3881 C93.6358,29.4651 93.8028,29.6381 93.8758,29.8511 C97.1028,35.4181 98.0298,39.3711 96.6308,41.6041 C95.6168,43.2221 93.7688,43.3641 93.1518,43.3641" id="Fill-18"></path>
                    <path d="M104.6231,13.1585 C100.1441,18.1425 100.0061,20.5785 100.3521,21.6085 C100.7871,22.8975 102.3391,23.1675 102.3541,23.1695 C102.5021,23.2075 103.9771,23.6055 104.9161,22.6205 C105.6661,21.8325 106.5721,19.5685 104.6231,13.1585 M103.1831,24.7805 C102.7311,24.7805 102.3281,24.7165 102.0311,24.6325 C101.2071,24.5055 99.5131,23.8035 98.9341,22.0955 C98.0881,19.6005 99.8971,15.9635 104.3111,11.2835 C104.4511,11.0665 104.6751,10.9385 104.9701,10.9405 C105.0191,10.9425 105.0661,10.9485 105.1121,10.9595 C105.2291,10.9845 105.3421,11.0375 105.4371,11.1175 C105.5851,11.2405 105.6781,11.4135 105.7011,11.5985 C107.7161,17.6975 107.8161,21.7545 105.9991,23.6575 C105.1711,24.5245 104.0811,24.7805 103.1831,24.7805" id="Fill-20"></path>
                    <path d="M91.7129,2.0579 C91.7599,8.7449 93.2929,10.6409 94.2389,11.1729 C95.4179,11.8329 96.7339,11.0129 96.7879,10.9779 C96.9089,10.9129 98.2749,10.2009 98.3019,8.8449 C98.3229,7.7579 97.4619,5.4759 91.7129,2.0579 M95.2439,12.9319 C94.6969,12.9319 94.0999,12.8139 93.5049,12.4799 C91.2179,11.1959 90.1119,7.2989 90.2189,0.8989 C90.1619,0.6089 90.2819,0.3019 90.5429,0.1299 C90.5829,0.1039 90.6239,0.0819 90.6659,0.0639 C90.7449,0.0289 90.8319,0.0079 90.9209,0.0009 C91.1149,-0.0101 91.3079,0.0539 91.4539,0.1759 C97.0439,3.3199 99.8529,6.2459 99.8019,8.8739 C99.7589,11.0809 97.7599,12.1629 97.5319,12.2789 C97.4249,12.3499 96.4619,12.9319 95.2439,12.9319" id="Fill-22"></path>
                    <path d="M91.6377,15.5804 C91.8527,22.2804 93.4377,24.1334 94.4017,24.6374 C95.6067,25.2684 96.8727,24.4144 96.9267,24.3774 C97.0577,24.3034 98.3987,23.5714 98.3947,22.2114 C98.3927,21.1234 97.4797,18.8614 91.6377,15.5804 M95.3567,26.3644 C94.8257,26.3644 94.2607,26.2554 93.7087,25.9684 C91.3757,24.7514 90.1667,20.8744 90.1157,14.4464 C90.0697,14.2154 90.1337,13.9714 90.2987,13.7914 C90.3647,13.7214 90.4407,13.6644 90.5237,13.6244 C90.5957,13.5874 90.6757,13.5614 90.7597,13.5504 C90.9657,13.5204 91.1677,13.5784 91.3257,13.7024 C97.0067,16.7154 99.8907,19.5774 99.8947,22.2094 C99.8987,24.4254 97.9297,25.5384 97.7047,25.6574 C97.2547,25.9714 96.3657,26.3644 95.3567,26.3644" id="Fill-25"></path>
                    <path d="M81.2305,59.411 C80.9825,59.411 80.7405,59.288 80.5965,59.064 C80.3745,58.715 80.4775,58.251 80.8265,58.029 C92.1255,50.827 98.8705,38.539 98.8705,25.159 C98.8705,20.585 98.0845,16.106 96.5335,11.847 C96.3915,11.458 96.5925,11.028 96.9815,10.886 C97.3735,10.746 97.8005,10.945 97.9435,11.334 C99.5535,15.758 100.3705,20.409 100.3705,25.159 C100.3705,39.055 93.3655,51.815 81.6325,59.293 C81.5075,59.373 81.3685,59.411 81.2305,59.411" id="Fill-27"></path>
                    <path d="M11.4297,57.2723 C17.3847,60.3283 19.7727,59.8443 20.6817,59.2493 C21.8147,58.5073 21.6917,56.9683 21.6857,56.9033 C21.6837,56.7593 21.6947,55.2323 20.5037,54.5763 C19.5527,54.0503 17.1327,53.7533 11.4297,57.2723 M18.8677,61.1903 C16.5977,61.1903 13.5137,60.1333 9.6487,58.0263 C9.5557,57.9873 9.4707,57.9303 9.4007,57.8583 C9.3887,57.8463 9.3767,57.8343 9.3667,57.8223 C9.1767,57.6083 9.1237,57.3063 9.2327,57.0413 C9.3097,56.8523 9.4587,56.7053 9.6427,56.6303 C15.0287,53.1243 18.9257,51.9933 21.2297,53.2633 C23.1677,54.3333 23.1867,56.5953 23.1827,56.8493 C23.2017,57.0253 23.3487,59.2953 21.5037,60.5033 C20.8037,60.9613 19.9237,61.1903 18.8677,61.1903" id="Fill-29"></path>
                    <path d="M22.8565,43.824 C20.4365,50.06 21.1655,52.388 21.8505,53.231 C22.7045,54.282 24.2285,54.002 24.2915,53.989 C24.4275,53.972 25.9605,53.814 26.4835,52.565 C26.9035,51.563 26.9445,49.124 22.8565,43.824 M23.7645,55.533 C22.9445,55.533 21.6225,55.327 20.6865,54.178 C19.0235,52.132 19.4405,48.075 21.9265,42.119 C21.9545,42.035 21.9965,41.955 22.0505,41.885 C22.2215,41.66 22.5095,41.549 22.7885,41.599 C23.0155,41.642 23.2065,41.785 23.3115,41.982 C27.3505,46.966 28.8825,50.721 27.8675,53.145 C27.0145,55.179 24.7585,55.448 24.5035,55.472 C24.4455,55.485 24.1645,55.533 23.7645,55.533" id="Fill-31"></path>
                    <path d="M2.1485,39.6922 C6.0815,45.1042 8.4275,45.7562 9.5155,45.6302 C10.8645,45.4782 11.4425,44.0552 11.4665,43.9942 C11.5285,43.8682 12.2255,42.4902 11.4595,41.3752 C10.8425,40.4792 8.8165,39.1262 2.1485,39.6922 M9.2695,47.1442 C6.7295,47.1442 3.6865,44.5952 0.2155,39.5572 C0.1865,39.5212 0.1595,39.4822 0.1365,39.4412 C-0.0645,39.1692 -0.0375,38.8232 0.1755,38.5582 C0.3425,38.3502 0.6155,38.2702 0.8735,38.3092 C7.2335,37.6192 11.2095,38.3642 12.6945,40.5252 C13.9435,42.3422 12.9485,44.3882 12.8305,44.6152 C12.7675,44.7842 11.8785,46.8732 9.6835,47.1212 C9.5465,47.1362 9.4095,47.1442 9.2695,47.1442" id="Fill-33"></path>
                    <path d="M15.4561,31.5989 C12.2341,37.4739 12.6581,39.8769 13.2311,40.8009 C13.9491,41.9549 15.5191,41.8609 15.5351,41.8619 C15.5461,41.8649 15.5611,41.8629 15.5911,41.8629 C15.8951,41.8629 17.2711,41.8209 17.9041,40.7449 C18.4551,39.8069 18.8191,37.3959 15.4561,31.5989 M15.3941,43.3649 C14.8411,43.3649 12.9801,43.2269 11.9641,41.6029 C10.5611,39.3629 11.5001,35.3899 14.7531,29.7939 C14.7661,29.7679 14.7791,29.7429 14.7941,29.7179 C14.9271,29.4119 15.2321,29.2659 15.5661,29.3139 C15.8461,29.3519 16.0621,29.5699 16.1511,29.8359 C19.5111,35.3209 20.5331,39.2489 19.1911,41.5149 C18.0371,43.4629 15.6531,43.3659 15.5531,43.3589 C15.5521,43.3599 15.4941,43.3649 15.3941,43.3649" id="Fill-36"></path>
                    <path d="M3.9746,13.1585 C2.0256,19.5685 2.9306,21.8335 3.6816,22.6205 C4.6186,23.6045 6.0966,23.2055 6.1596,23.1885 C6.3066,23.1595 7.8106,22.8975 8.2446,21.6085 C8.5906,20.5775 8.4536,18.1425 3.9746,13.1585 M5.3816,24.7855 C4.5756,24.7855 3.4746,24.5775 2.5956,23.6555 C0.7756,21.7465 0.8826,17.6725 2.9126,11.5485 C2.9436,11.4065 3.0126,11.2735 3.1176,11.1715 C3.2876,11.0055 3.5236,10.9225 3.7516,10.9525 C3.9686,10.9795 4.1626,11.0985 4.2826,11.2785 C8.6986,15.9605 10.5086,19.5985 9.6626,22.0935 C9.0846,23.8015 7.3916,24.5045 6.4816,24.6505 C6.4126,24.6725 5.9776,24.7855 5.3816,24.7855" id="Fill-38"></path>
                    <path d="M16.8867,2.0569 C11.1317,5.4769 10.2727,7.7609 10.2947,8.8479 C10.3237,10.2059 11.6877,10.9119 11.7447,10.9419 C11.8647,11.0139 13.1817,11.8329 14.3587,11.1719 C15.3057,10.6399 16.8387,8.7439 16.8867,2.0569 M13.3587,12.9309 C12.1337,12.9309 11.1547,12.3389 11.0047,12.2439 C10.8397,12.1639 8.8407,11.0889 8.7957,8.8789 C8.7407,6.2389 11.5717,3.2999 17.2077,0.1399 C17.2467,0.1139 17.2887,0.0919 17.3317,0.0739 C17.5757,-0.0391 17.8737,-0.0111 18.0987,0.1609 C18.3257,0.3359 18.4297,0.6189 18.3807,0.8889 C18.4877,7.2949 17.3817,11.1949 15.0927,12.4799 C14.5007,12.8129 13.9057,12.9309 13.3587,12.9309" id="Fill-40"></path>
                    <path d="M16.9571,15.5814 C11.1161,18.8624 10.2041,21.1234 10.2021,22.2104 C10.1991,23.5714 11.5401,24.3034 11.5981,24.3334 C11.6861,24.3894 12.9901,25.2654 14.1951,24.6374 C15.1591,24.1334 16.7441,22.2814 16.9571,15.5814 M13.2541,26.3674 C11.9201,26.3674 10.8751,25.6524 10.8151,25.6104 C10.6681,25.5384 8.6981,24.4254 8.7021,22.2094 C8.7071,19.5694 11.6041,16.6994 17.3171,13.6774 C17.4441,13.5944 17.5911,13.5464 17.7491,13.5544 C17.9841,13.5614 18.2061,13.6714 18.3421,13.8594 C18.4691,14.0294 18.5191,14.2434 18.4791,14.4474 C18.4291,20.8844 17.2171,24.7624 14.8771,25.9734 C14.3191,26.2624 13.7661,26.3674 13.2541,26.3674" id="Fill-42"></path>
                    <path d="M27.3633,59.411 C27.2253,59.411 27.0863,59.373 26.9613,59.293 C15.2303,51.815 8.2273,39.055 8.2273,25.159 C8.2273,20.411 9.0433,15.76 10.6523,11.334 C10.7943,10.945 11.2263,10.743 11.6133,10.886 C12.0033,11.027 12.2043,11.458 12.0623,11.847 C10.5123,16.108 9.7273,20.587 9.7273,25.159 C9.7273,38.539 16.4713,50.827 27.7673,58.029 C28.1173,58.251 28.2193,58.715 27.9973,59.064 C27.8533,59.288 27.6113,59.411 27.3633,59.411" id="Fill-44"></path>
                </g>
            </g>
        </g>
    </g>
</svg>